<svg width="0" height="0" class="hidden">
  <symbol fill="none" xmlns="http://www.w3.org/2000/svg" viewBox="0 0 100 95" id="step-1">
    <path d="M75.1229 0.001297H2.09854C0.939816 0.001297 0 0.943243 0 2.10614V92.8951C0 93.4538 0.221059 93.989 0.614851 94.384C1.00793 94.7783 1.54226 95 2.09857 95H75.1229C75.68 95 76.2136 94.7783 76.6074 94.384C77.0012 93.989 77.2222 93.4538 77.2222 92.8951V54.0779L99.3844 31.8491C99.7789 31.4549 100 30.9189 100 30.3602C100 29.8015 99.7789 29.2656 99.3844 28.8706L86.9811 16.43C86.5873 16.035 86.0537 15.8126 85.4967 15.8126C84.9396 15.8126 84.4053 16.035 84.0115 16.43L77.2225 23.2924V2.10488C77.2225 1.54617 77.0014 1.01096 76.6076 0.615967C76.2138 0.221705 75.6802 0 75.1232 0L75.1229 0.001297ZM73.0244 90.7903H4.19745V4.20948H73.0244V27.5021L55.1854 45.3947H18.6788V49.6044H50.9355L41.2287 59.3403C40.8144 59.7581 40.5941 60.3307 40.6204 60.9188L39.0254 66.4449H18.6772V70.6546H37.7962L35.8022 77.5486C35.606 78.2776 35.8147 79.0558 36.3475 79.5888C36.8812 80.1218 37.6578 80.3273 38.3839 80.1276L55.6879 75.2652V75.2645C56.0355 75.172 56.354 74.9906 56.6116 74.7388L73.0233 58.2874L73.0244 90.7903ZM43.8315 64.9303L51.0517 72.2141L40.8414 75.0766L43.8315 64.9303ZM45.6783 60.8358L76.1098 30.3128L85.5537 39.7851L55.1222 70.3081L45.6783 60.8358ZM85.5016 20.8928L94.9454 30.3651L88.5546 36.7642L79.1108 27.2919L85.5016 20.8928Z" fill="currentColor" fill-opacity="0.6"></path>
  </symbol>
  <symbol fill="none" xmlns="http://www.w3.org/2000/svg" viewBox="0 0 106 107" id="step-2">
    <path d="M28.535 15.3945C28.5679 16.0046 28.8404 16.577 29.2927 16.9853C29.7451 17.3928 30.3406 17.6031 30.9468 17.5685L48.6405 16.6024C51.4167 16.6725 54.0879 17.6856 56.2188 19.4782L83.3431 41.164C83.8995 41.6039 84.2723 42.2371 84.3886 42.9397C84.5049 43.6423 84.3565 44.3633 83.9715 44.9603C83.6018 45.545 83.04 45.9811 82.384 46.1906C81.7281 46.4009 81.0201 46.3732 80.3825 46.1113L60.3004 37.7358C58.964 36.4608 57.1929 35.749 55.3512 35.7459H43.7838C42.5217 35.7459 41.4983 36.7759 41.4983 38.0462C41.4983 39.3173 42.5217 40.3473 43.7838 40.3473H55.3512C56.3654 40.4197 57.2755 41.0005 57.7715 41.8934C58.2683 42.7863 58.2851 43.8709 57.8152 44.7792C57.346 45.6867 56.4543 46.2953 55.4425 46.3986L42.1384 45.2484C41.9302 45.2191 41.7182 45.2191 41.51 45.2484C20.6735 49.2513 14.7071 33.548 14.4543 32.8809C14.0288 31.6806 12.7161 31.0543 11.5228 31.4834C10.3296 31.9125 9.70808 33.2337 10.1344 34.4339C10.2033 34.6412 17.5297 54.3605 42.0358 49.8498L55.1462 51H55.3407H55.3399C57.2626 50.9715 59.101 50.1996 60.4734 48.8437C61.8465 47.4878 62.648 45.6527 62.7122 43.7184L78.6341 50.322V50.3212C80.8637 51.2803 83.417 51.0869 85.4784 49.802C87.5389 48.517 88.8484 46.3014 88.9877 43.8654C89.127 41.4294 88.0792 39.0776 86.1779 37.563L59.0653 15.8772C56.1117 13.4144 52.4078 12.0454 48.5724 12H48.4584L30.708 12.9668C30.0987 12.9961 29.5278 13.2696 29.1198 13.7249C28.7118 14.1809 28.5021 14.7818 28.5358 15.3942L28.535 15.3945Z" fill="currentColor" fill-opacity="0.6"></path>
    <path d="M5.70348 32.2913C6.1349 32.7421 6.73244 32.9977 7.35764 33C7.98286 32.9977 8.57962 32.7421 9.01104 32.2913L31.3598 9.15776C32.2134 8.27378 32.2134 6.87693 31.3598 5.9923L26.2957 0.72353C25.4205 -0.201791 23.9579 -0.245405 23.028 0.626331C22.099 1.4973 22.0552 2.95301 22.9304 3.8776L26.4671 7.5468L7.32384 27.4455L3.87861 23.9027V23.9019C2.98808 23.0608 1.58999 23.0646 0.704855 23.9119C-0.180295 24.7591 -0.239514 26.1498 0.571043 27.0681L5.70348 32.2913Z" fill="currentColor" fill-opacity="0.6"></path>
    <path d="M57 82.5C57 88.9984 59.5812 95.2296 64.1758 99.8242C68.7712 104.419 75.0024 107 81.5 107C87.9984 107 94.2296 104.419 98.8242 99.8242C103.419 95.2296 106 88.9984 106 82.5C106 76.0024 103.419 69.771 98.8242 65.1758C94.2296 60.5812 87.9984 58 81.5 58C75.0024 58 68.771 60.5812 64.1758 65.1758C59.5812 69.7712 57 76.0024 57 82.5ZM101.334 82.5C101.334 87.7602 99.2442 92.8046 95.5246 96.5242C91.805 100.244 86.7606 102.334 81.5004 102.334C76.2402 102.334 71.1958 100.244 67.4762 96.5242C63.7566 92.8046 61.6676 87.7602 61.6676 82.5C61.6676 77.2398 63.7566 72.1954 67.4762 68.4758C71.1958 64.7562 76.2402 62.6672 81.5004 62.6672C86.7606 62.6672 91.805 64.7562 95.5246 68.4758C99.2442 72.1954 101.334 77.2398 101.334 82.5Z" fill="currentColor" fill-opacity="0.6"></path>
    <path d="M79.724 68V70.6718C78.9563 70.8328 78.2271 71.1453 77.5752 71.5929C76.1662 72.5453 75.1782 74.0327 74.8268 75.7327C74.4748 77.4327 74.7882 79.2069 75.6983 80.6703C77.0778 82.8289 78.8752 83.3539 81.148 84.0305C81.8832 84.2407 82.7312 84.4969 83.7487 84.8469C85.3433 85.4071 85.4788 85.7454 85.3546 86.9351C85.2865 87.5883 84.1107 88.5805 82.8448 88.7898C81.2283 89.0812 79.3961 87.95 78.3225 86.0016H78.3217C78.0583 85.4001 77.5601 84.9415 76.9506 84.7407C76.3411 84.5391 75.6779 84.6133 75.1244 84.9454C74.5717 85.2774 74.1803 85.8352 74.0485 86.4813C73.9168 87.1274 74.0561 87.8008 74.4324 88.3352C75.6211 90.4922 77.5117 92.1462 79.7686 93.0016V96H84.2908L84.2916 93.2468C86.8809 92.5585 89.5717 90.4234 89.945 87.4132C90.5106 82.1984 86.5531 80.8336 85.2865 80.4132C84.1561 80.0398 83.2855 79.7601 82.4935 79.5265C80.4016 78.9085 79.9949 78.7444 79.5763 78.0796H79.577C79.0607 77.1757 79.3363 76.0116 80.1986 75.4546C80.9345 75.0796 81.7863 75.0249 82.5615 75.303C83.9016 75.6476 85.0359 76.564 85.6825 77.8234C86.2473 78.9734 87.6086 79.4328 88.7237 78.85C89.8382 78.2672 90.2834 76.8617 89.7186 75.7118C88.5837 73.4954 86.6576 71.822 84.3476 71.0454V68L79.724 68Z" fill="currentColor" fill-opacity="0.6"></path>
  </symbol>
  <symbol fill="none" xmlns="http://www.w3.org/2000/svg" viewBox="0 0 140 97" id="step-3">
    <path fill-rule="evenodd" clip-rule="evenodd" d="M80.601 4.61984C77.7787 1.61803 73.9529 -0.0457522 69.9788 0.000957605L69.979 0.00124216C66.012 0.0132001 62.2122 1.70951 59.4053 4.71664C56.5993 7.72376 55.0155 11.8011 55 16.0561C55.0435 20.2935 56.6388 24.3407 59.4414 27.3245C62.2451 30.3084 66.0306 31.9878 69.9788 32C73.9423 31.9923 77.7445 30.3085 80.5585 27.3134C83.3923 24.3227 84.9917 20.2403 85 15.9761C85.0082 11.712 83.4233 7.62164 80.601 4.61984ZM69.9788 6.49045C72.3377 6.45372 74.614 7.42354 76.3087 9.18519L76.3089 9.2162C78.016 11.007 78.9831 13.4581 78.9924 16.0194C79.0017 18.5818 78.0522 21.0409 76.3586 22.8459C74.6638 24.6509 72.3659 25.6508 69.9788 25.623C67.6155 25.6107 65.3496 24.6098 63.6632 22.8326C61.9923 21.034 61.0573 18.5963 61.0625 16.0561C61.0625 13.5194 62.0026 11.0859 63.6746 9.29196C65.3465 7.49807 67.6144 6.49045 69.9788 6.49045ZM0 67.5727V85.4088C0.0191792 88.4795 1.23829 91.4193 3.39061 93.5863C5.53978 95.7715 8.4605 97 11.5075 97C13.5909 97 15.6157 96.4258 17.3746 95.364C17.8942 96.339 18.9015 97 20.0591 97H53.0473H86.9516H119.941C120.753 97 121.53 96.6688 122.104 96.0787C122.311 95.865 122.486 95.6238 122.625 95.3635C124.384 96.4255 126.409 97 128.492 97C131.539 97 134.46 95.7716 136.609 93.5863C138.779 91.4311 140.001 88.4839 140 85.4088V68.0324V61V53.134C139.964 48.3333 137.971 43.7395 134.456 40.3506C130.941 36.9606 126.186 35.0488 121.223 35.0302H114.641C112.947 35.0302 111.573 36.3581 111.573 37.9977C111.573 39.6363 112.947 40.9653 114.641 40.9653H114.642L121.284 40.9654C124.617 40.9572 127.817 42.2334 130.178 44.5106C132.537 46.7879 133.863 49.8798 133.863 53.1041V61.0002L133.709 61.0002V85.409C133.722 86.8344 133.165 88.2058 132.167 89.2135C131.168 90.2201 129.811 90.7786 128.4 90.7623C127.005 90.7558 125.667 90.1984 124.672 89.2102C123.692 88.1916 123.142 86.8289 123.138 85.4088L123.137 61H123V58.1445C123 56.4083 121.63 55 119.941 55C118.253 55 116.883 56.4082 116.883 58.1445L116.882 90.6787H90V58.1881C90 56.4275 88.615 55 86.9059 55C85.1978 55 83.8129 56.4275 83.8129 58.1881L83.8112 90.6787H56.0946V58.1881C56.0946 56.4539 54.7299 55.0471 53.0473 55.0471C51.3637 55.0471 50 56.4538 50 58.1881V90.6787H23.117V58.1445C23.117 56.4083 21.7475 55 20.0591 55C18.3696 55 17 56.4083 17 58.1445V61H16.7549V85.4088C16.7549 87.3267 15.7435 89.0985 14.1007 90.0575C12.4578 91.0165 10.4339 91.0165 8.79214 90.0575C7.14928 89.0985 6.13787 87.3268 6.13787 85.4088L6.1368 61L6.13776 53.074C6.15804 49.8558 7.49035 46.7753 9.84672 44.5023C12.2021 42.2291 15.3897 40.9477 18.7168 40.9353H98.9036C99.7169 40.9353 100.497 40.6227 101.073 40.0668C101.648 39.5099 101.972 38.7554 101.972 37.9676C101.972 37.1809 101.648 36.4253 101.073 35.8695C100.497 35.3126 99.7169 35 98.9036 35H18.7771C13.8074 35 9.04022 36.9055 5.52056 40.2987C2.00109 43.6926 0.0160513 48.2968 0 53.1039V61V67.5727ZM106.526 40.9653C104.831 40.9653 103.457 39.6363 103.457 37.9977C103.457 36.3581 104.831 35.0302 106.526 35.0302H107.354C108.168 35.0302 108.949 35.3428 109.524 35.8986C110.099 36.4555 110.422 37.2101 110.422 37.9978C110.422 38.7845 110.099 39.5401 109.524 40.096C108.949 40.6529 108.168 40.9654 107.354 40.9654L106.526 40.9653ZM103.5 0C107.345 0.011851 111.03 1.64296 113.762 4.5411C116.481 7.44558 118.007 11.3932 118 15.5076C118.026 19.6209 116.497 23.5704 113.762 26.4578C111.036 29.3667 107.347 31 103.5 31C99.6535 31 95.9637 29.3667 93.2381 26.4578C90.5034 23.5704 88.9743 19.6209 89.0003 15.5076C88.9933 11.3932 90.5184 7.44586 93.2381 4.5411C95.9696 1.64296 99.6555 0.0118595 103.5 0ZM109.64 8.94319C108.016 7.18817 105.805 6.2024 103.5 6.2024C101.194 6.2024 98.9838 7.18817 97.3602 8.94319C95.7285 10.681 94.8106 13.0425 94.8086 15.5076C94.8086 18.8343 96.4654 21.9092 99.1549 23.5726C101.843 25.236 105.157 25.236 107.846 23.5726C110.535 21.9092 112.192 18.8343 112.192 15.5076C112.19 13.0426 111.271 10.681 109.64 8.94319H109.64ZM46.6886 4.5411C43.9672 1.63973 40.2904 0.00861885 36.4571 0C32.624 0.0118595 28.949 1.64296 26.2255 4.5411C23.5139 7.44586 21.9933 11.3932 22.0003 15.5076C21.9744 19.6209 23.499 23.5704 26.2255 26.4578C28.9431 29.3667 32.6219 31 36.4571 31C40.2922 31 43.971 29.3667 46.6886 26.4578C49.4473 23.5867 51.003 19.635 51 15.5076C50.9838 11.3791 49.4313 7.43069 46.6886 4.5411ZM36.4571 6.2024C38.7563 6.2024 40.9597 7.18817 42.5786 8.94319L42.5787 8.94349C44.7559 11.2942 45.5999 14.7138 44.795 17.9156C43.9892 21.1174 41.6556 23.6138 38.6734 24.4649C35.6903 25.3149 32.5127 24.3916 30.3355 22.0408C28.7166 20.3104 27.8014 17.9607 27.7914 15.5076C27.7763 13.0394 28.6945 10.6691 30.3355 8.94319C31.9542 7.18817 34.1585 6.2024 36.4571 6.2024Z" fill="currentColor" fill-opacity="0.6"></path>
  </symbol>
  <symbol fill="none" xmlns="http://www.w3.org/2000/svg" viewBox="0 0 108 108" id="step-4">
    <path fill-rule="evenodd" clip-rule="evenodd" d="M6.77074 103.001C6.04183 102.986 5.33678 103.243 4.81503 103.714C4.29328 104.184 4 104.827 4 105.5C4 106.173 4.29328 106.816 4.81503 107.286C5.33678 107.757 6.04183 108.014 6.77074 107.999H45.2284C45.9582 108.014 46.6632 107.757 47.1841 107.286C47.7059 106.816 48 106.173 48 105.5C48 104.827 47.7059 104.184 47.1841 103.714C46.6632 103.243 45.9582 102.986 45.2284 103.001H6.77074Z" fill="currentColor" fill-opacity="0.6"></path>
    <path fill-rule="evenodd" clip-rule="evenodd" d="M64.223 0.880113L42.0838 22.7099C41.9434 22.6851 41.8004 22.6706 41.6583 22.668C30.228 22.7194 24.2191 28.4806 18.4123 33.9639C12.4462 39.9488 6.38784 46.0422 1.29748 51.1829C-0.462616 53.1091 -0.330793 54.3898 1.08431 55.7098L51.0236 101.358C56.768 106.668 61.0415 107.921 65.7961 108H104.707C106.922 107.988 108.002 106.635 107.985 104.996C107.982 100.948 108.009 96.824 107.997 92.8012C107.957 87.2118 104.998 84.7952 101.643 82.6584C98.2243 80.4814 94.1555 79.0536 90.2757 77.201C86.396 75.3476 82.7507 73.1458 80.0157 69.7548C77.3481 66.4477 75.7439 61.3627 75.1197 54.9901C75.0812 54.4696 74.9725 53.9679 74.9065 53.5519L96.0655 32.5678C97.0868 31.5636 97.0868 29.7223 96.0655 28.7181L68.0528 0.878818C66.7208 -0.324826 65.6371 -0.260613 64.2211 0.878818L64.223 0.880113ZM66.139 6.63381L90.2769 30.6225L68.5221 52.2411C49.9785 53.2881 41.3203 39.3975 43.3607 29.1005L66.139 6.63381ZM37.9554 28.337C35.3391 42.4536 47.9768 59.2685 69.8427 57.5701C69.9669 58.8396 70.1192 60.0544 70.3538 61.2085L64.4357 63.281C63.0874 63.7682 62.3057 65.4315 62.7963 66.7713C63.2868 68.1111 64.9604 68.8875 66.3087 68.4004L71.886 66.3698C72.4296 67.7464 73.0614 69.0424 73.7591 70.2195L68.948 71.912C67.5997 72.3888 66.8086 74.041 67.288 75.3808C67.7674 76.7205 69.43 77.5072 70.7792 77.0304L77.2075 74.7455C80.4451 78.1176 84.2984 80.3271 87.9359 82.0648C92.1291 84.0672 96.0936 85.5619 98.7071 87.2262C100.34 88.2663 101.4 89.16 101.985 90.3989H70.0122C65.4673 90.3989 62.9717 88.8699 58.9002 85.2375L45.7464 73.3072C49.0149 65.1274 48.1905 53.9538 40.0416 46.5702C35.3391 42.5073 30.6187 38.4453 25.9068 34.3857C29.3423 31.3337 32.6963 29.0643 37.9554 28.3359L37.9554 28.337ZM21.9475 38.11L36.3801 50.5906C41.9447 55.6363 42.9719 63.281 41.3608 69.2898L33.1869 61.8436C33.7057 60.7795 34.2716 59.2959 34.2511 57.4434C34.216 54.2683 32.4019 50.6393 27.737 46.5705H27.6942L20.0305 40.055C20.6726 39.4104 21.3052 38.752 21.9465 38.1091L21.9475 38.11ZM16.1996 43.9064L24.1184 50.6755C28.1428 54.1863 28.7885 56.2725 28.8012 57.4872C28.8029 57.6088 28.7704 57.7115 28.7584 57.8254L14.8796 45.2181C15.317 44.778 15.7622 44.3466 16.1997 43.9065L16.1996 43.9064ZM11.0486 49.0677L55.2394 89.2586C59.6637 93.206 64.034 95.8162 70.0119 95.8162H102.537V102.585H65.7975C61.2568 102.585 57.7665 100.091 54.7283 97.3811C38.6922 82.7944 22.6744 68.1086 6.6628 53.4668C8.12243 51.9918 9.5881 50.54 11.0477 49.0666L11.0486 49.0677Z" fill="currentColor" fill-opacity="0.6"></path>
  </symbol>
  <symbol fill="none" xmlns="http://www.w3.org/2000/svg" viewBox="0 0 14 12" id="triangle-bottom">
    <path d="M7 12L0.0717975 -1.30507e-06L13.9282 -9.36995e-08L7 12Z" fill="currentColor"></path>
  </symbol>
  <symbol fill="none" xmlns="http://www.w3.org/2000/svg" viewBox="0 0 12 14" id="triangle-right">
    <path d="M12 7L1.78017e-07 13.9282L1.27811e-08 0.071797L12 7Z" fill="currentColor"></path>
  </symbol>
  <symbol id="menu" version="1.1" xml:space="preserve" xmlns="http://www.w3.org/2000/svg" xmlns:xlink="http://www.w3.org/1999/xlink" viewBox="0 0 16 16">
    <rect height="2" width="16" fill="currentColor"></rect>
    <rect height="2" width="16" y="7" fill="currentColor"></rect>
    <rect height="2" width="16" y="14" fill="currentColor"></rect>
  </symbol>
  <symbol xmlns="http://www.w3.org/2000/svg" viewBox="0 0 20 20" id="close">
    <path d="M10 8.586L2.929 1.515 1.515 2.929 8.586 10l-7.071 7.071 1.414 1.414L10 11.414l7.071 7.071 1.414-1.414L11.414 10l7.071-7.071-1.414-1.414L10 8.586z" fill="currentColor"></path>
  </symbol>
</svg>