<svg width="100" height="95" viewBox="0 0 100 95" fill="none" xmlns="http://www.w3.org/2000/svg">
<path d="M75.1229 0.001297H2.09854C0.939816 0.001297 0 0.943243 0 2.10614V92.8951C0 93.4538 0.221059 93.989 0.614851 94.384C1.00793 94.7783 1.54226 95 2.09857 95H75.1229C75.68 95 76.2136 94.7783 76.6074 94.384C77.0012 93.989 77.2222 93.4538 77.2222 92.8951V54.0779L99.3844 31.8491C99.7789 31.4549 100 30.9189 100 30.3602C100 29.8015 99.7789 29.2656 99.3844 28.8706L86.9811 16.43C86.5873 16.035 86.0537 15.8126 85.4967 15.8126C84.9396 15.8126 84.4053 16.035 84.0115 16.43L77.2225 23.2924V2.10488C77.2225 1.54617 77.0014 1.01096 76.6076 0.615967C76.2138 0.221705 75.6802 0 75.1232 0L75.1229 0.001297ZM73.0244 90.7903H4.19745V4.20948H73.0244V27.5021L55.1854 45.3947H18.6788V49.6044H50.9355L41.2287 59.3403C40.8144 59.7581 40.5941 60.3307 40.6204 60.9188L39.0254 66.4449H18.6772V70.6546H37.7962L35.8022 77.5486C35.606 78.2776 35.8147 79.0558 36.3475 79.5888C36.8812 80.1218 37.6578 80.3273 38.3839 80.1276L55.6879 75.2652V75.2645C56.0355 75.172 56.354 74.9906 56.6116 74.7388L73.0233 58.2874L73.0244 90.7903ZM43.8315 64.9303L51.0517 72.2141L40.8414 75.0766L43.8315 64.9303ZM45.6783 60.8358L76.1098 30.3128L85.5537 39.7851L55.1222 70.3081L45.6783 60.8358ZM85.5016 20.8928L94.9454 30.3651L88.5546 36.7642L79.1108 27.2919L85.5016 20.8928Z" fill="currentColor" fill-opacity="0.6"/>
</svg>
