<svg width="106" height="107" viewBox="0 0 106 107" fill="none" xmlns="http://www.w3.org/2000/svg">
<path d="M28.535 15.3945C28.5679 16.0046 28.8404 16.577 29.2927 16.9853C29.7451 17.3928 30.3406 17.6031 30.9468 17.5685L48.6405 16.6024C51.4167 16.6725 54.0879 17.6856 56.2188 19.4782L83.3431 41.164C83.8995 41.6039 84.2723 42.2371 84.3886 42.9397C84.5049 43.6423 84.3565 44.3633 83.9715 44.9603C83.6018 45.545 83.04 45.9811 82.384 46.1906C81.7281 46.4009 81.0201 46.3732 80.3825 46.1113L60.3004 37.7358C58.964 36.4608 57.1929 35.749 55.3512 35.7459H43.7838C42.5217 35.7459 41.4983 36.7759 41.4983 38.0462C41.4983 39.3173 42.5217 40.3473 43.7838 40.3473H55.3512C56.3654 40.4197 57.2755 41.0005 57.7715 41.8934C58.2683 42.7863 58.2851 43.8709 57.8152 44.7792C57.346 45.6867 56.4543 46.2953 55.4425 46.3986L42.1384 45.2484C41.9302 45.2191 41.7182 45.2191 41.51 45.2484C20.6735 49.2513 14.7071 33.548 14.4543 32.8809C14.0288 31.6806 12.7161 31.0543 11.5228 31.4834C10.3296 31.9125 9.70808 33.2337 10.1344 34.4339C10.2033 34.6412 17.5297 54.3605 42.0358 49.8498L55.1462 51H55.3407H55.3399C57.2626 50.9715 59.101 50.1996 60.4734 48.8437C61.8465 47.4878 62.648 45.6527 62.7122 43.7184L78.6341 50.322V50.3212C80.8637 51.2803 83.417 51.0869 85.4784 49.802C87.5389 48.517 88.8484 46.3014 88.9877 43.8654C89.127 41.4294 88.0792 39.0776 86.1779 37.563L59.0653 15.8772C56.1117 13.4144 52.4078 12.0454 48.5724 12H48.4584L30.708 12.9668C30.0987 12.9961 29.5278 13.2696 29.1198 13.7249C28.7118 14.1809 28.5021 14.7818 28.5358 15.3942L28.535 15.3945Z" fill="currentColor" fill-opacity="0.6"/>
<path d="M5.70348 32.2913C6.1349 32.7421 6.73244 32.9977 7.35764 33C7.98286 32.9977 8.57962 32.7421 9.01104 32.2913L31.3598 9.15776C32.2134 8.27378 32.2134 6.87693 31.3598 5.9923L26.2957 0.72353C25.4205 -0.201791 23.9579 -0.245405 23.028 0.626331C22.099 1.4973 22.0552 2.95301 22.9304 3.8776L26.4671 7.5468L7.32384 27.4455L3.87861 23.9027V23.9019C2.98808 23.0608 1.58999 23.0646 0.704855 23.9119C-0.180295 24.7591 -0.239514 26.1498 0.571043 27.0681L5.70348 32.2913Z" fill="currentColor" fill-opacity="0.6"/>
<path d="M57 82.5C57 88.9984 59.5812 95.2296 64.1758 99.8242C68.7712 104.419 75.0024 107 81.5 107C87.9984 107 94.2296 104.419 98.8242 99.8242C103.419 95.2296 106 88.9984 106 82.5C106 76.0024 103.419 69.771 98.8242 65.1758C94.2296 60.5812 87.9984 58 81.5 58C75.0024 58 68.771 60.5812 64.1758 65.1758C59.5812 69.7712 57 76.0024 57 82.5ZM101.334 82.5C101.334 87.7602 99.2442 92.8046 95.5246 96.5242C91.805 100.244 86.7606 102.334 81.5004 102.334C76.2402 102.334 71.1958 100.244 67.4762 96.5242C63.7566 92.8046 61.6676 87.7602 61.6676 82.5C61.6676 77.2398 63.7566 72.1954 67.4762 68.4758C71.1958 64.7562 76.2402 62.6672 81.5004 62.6672C86.7606 62.6672 91.805 64.7562 95.5246 68.4758C99.2442 72.1954 101.334 77.2398 101.334 82.5Z" fill="currentColor" fill-opacity="0.6"/>
<path d="M79.724 68V70.6718C78.9563 70.8328 78.2271 71.1453 77.5752 71.5929C76.1662 72.5453 75.1782 74.0327 74.8268 75.7327C74.4748 77.4327 74.7882 79.2069 75.6983 80.6703C77.0778 82.8289 78.8752 83.3539 81.148 84.0305C81.8832 84.2407 82.7312 84.4969 83.7487 84.8469C85.3433 85.4071 85.4788 85.7454 85.3546 86.9351C85.2865 87.5883 84.1107 88.5805 82.8448 88.7898C81.2283 89.0812 79.3961 87.95 78.3225 86.0016H78.3217C78.0583 85.4001 77.5601 84.9415 76.9506 84.7407C76.3411 84.5391 75.6779 84.6133 75.1244 84.9454C74.5717 85.2774 74.1803 85.8352 74.0485 86.4813C73.9168 87.1274 74.0561 87.8008 74.4324 88.3352C75.6211 90.4922 77.5117 92.1462 79.7686 93.0016V96H84.2908L84.2916 93.2468C86.8809 92.5585 89.5717 90.4234 89.945 87.4132C90.5106 82.1984 86.5531 80.8336 85.2865 80.4132C84.1561 80.0398 83.2855 79.7601 82.4935 79.5265C80.4016 78.9085 79.9949 78.7444 79.5763 78.0796H79.577C79.0607 77.1757 79.3363 76.0116 80.1986 75.4546C80.9345 75.0796 81.7863 75.0249 82.5615 75.303C83.9016 75.6476 85.0359 76.564 85.6825 77.8234C86.2473 78.9734 87.6086 79.4328 88.7237 78.85C89.8382 78.2672 90.2834 76.8617 89.7186 75.7118C88.5837 73.4954 86.6576 71.822 84.3476 71.0454V68L79.724 68Z" fill="currentColor" fill-opacity="0.6"/>
</svg>
