<svg width="140" height="97" viewBox="0 0 140 97" fill="none" xmlns="http://www.w3.org/2000/svg">
<path fill-rule="evenodd" clip-rule="evenodd" d="M80.601 4.61984C77.7787 1.61803 73.9529 -0.0457522 69.9788 0.000957605L69.979 0.00124216C66.012 0.0132001 62.2122 1.70951 59.4053 4.71664C56.5993 7.72376 55.0155 11.8011 55 16.0561C55.0435 20.2935 56.6388 24.3407 59.4414 27.3245C62.2451 30.3084 66.0306 31.9878 69.9788 32C73.9423 31.9923 77.7445 30.3085 80.5585 27.3134C83.3923 24.3227 84.9917 20.2403 85 15.9761C85.0082 11.712 83.4233 7.62164 80.601 4.61984ZM69.9788 6.49045C72.3377 6.45372 74.614 7.42354 76.3087 9.18519L76.3089 9.2162C78.016 11.007 78.9831 13.4581 78.9924 16.0194C79.0017 18.5818 78.0522 21.0409 76.3586 22.8459C74.6638 24.6509 72.3659 25.6508 69.9788 25.623C67.6155 25.6107 65.3496 24.6098 63.6632 22.8326C61.9923 21.034 61.0573 18.5963 61.0625 16.0561C61.0625 13.5194 62.0026 11.0859 63.6746 9.29196C65.3465 7.49807 67.6144 6.49045 69.9788 6.49045ZM0 67.5727V85.4088C0.0191792 88.4795 1.23829 91.4193 3.39061 93.5863C5.53978 95.7715 8.4605 97 11.5075 97C13.5909 97 15.6157 96.4258 17.3746 95.364C17.8942 96.339 18.9015 97 20.0591 97H53.0473H86.9516H119.941C120.753 97 121.53 96.6688 122.104 96.0787C122.311 95.865 122.486 95.6238 122.625 95.3635C124.384 96.4255 126.409 97 128.492 97C131.539 97 134.46 95.7716 136.609 93.5863C138.779 91.4311 140.001 88.4839 140 85.4088V68.0324V61V53.134C139.964 48.3333 137.971 43.7395 134.456 40.3506C130.941 36.9606 126.186 35.0488 121.223 35.0302H114.641C112.947 35.0302 111.573 36.3581 111.573 37.9977C111.573 39.6363 112.947 40.9653 114.641 40.9653H114.642L121.284 40.9654C124.617 40.9572 127.817 42.2334 130.178 44.5106C132.537 46.7879 133.863 49.8798 133.863 53.1041V61.0002L133.709 61.0002V85.409C133.722 86.8344 133.165 88.2058 132.167 89.2135C131.168 90.2201 129.811 90.7786 128.4 90.7623C127.005 90.7558 125.667 90.1984 124.672 89.2102C123.692 88.1916 123.142 86.8289 123.138 85.4088L123.137 61H123V58.1445C123 56.4083 121.63 55 119.941 55C118.253 55 116.883 56.4082 116.883 58.1445L116.882 90.6787H90V58.1881C90 56.4275 88.615 55 86.9059 55C85.1978 55 83.8129 56.4275 83.8129 58.1881L83.8112 90.6787H56.0946V58.1881C56.0946 56.4539 54.7299 55.0471 53.0473 55.0471C51.3637 55.0471 50 56.4538 50 58.1881V90.6787H23.117V58.1445C23.117 56.4083 21.7475 55 20.0591 55C18.3696 55 17 56.4083 17 58.1445V61H16.7549V85.4088C16.7549 87.3267 15.7435 89.0985 14.1007 90.0575C12.4578 91.0165 10.4339 91.0165 8.79214 90.0575C7.14928 89.0985 6.13787 87.3268 6.13787 85.4088L6.1368 61L6.13776 53.074C6.15804 49.8558 7.49035 46.7753 9.84672 44.5023C12.2021 42.2291 15.3897 40.9477 18.7168 40.9353H98.9036C99.7169 40.9353 100.497 40.6227 101.073 40.0668C101.648 39.5099 101.972 38.7554 101.972 37.9676C101.972 37.1809 101.648 36.4253 101.073 35.8695C100.497 35.3126 99.7169 35 98.9036 35H18.7771C13.8074 35 9.04022 36.9055 5.52056 40.2987C2.00109 43.6926 0.0160513 48.2968 0 53.1039V61V67.5727ZM106.526 40.9653C104.831 40.9653 103.457 39.6363 103.457 37.9977C103.457 36.3581 104.831 35.0302 106.526 35.0302H107.354C108.168 35.0302 108.949 35.3428 109.524 35.8986C110.099 36.4555 110.422 37.2101 110.422 37.9978C110.422 38.7845 110.099 39.5401 109.524 40.096C108.949 40.6529 108.168 40.9654 107.354 40.9654L106.526 40.9653ZM103.5 0C107.345 0.011851 111.03 1.64296 113.762 4.5411C116.481 7.44558 118.007 11.3932 118 15.5076C118.026 19.6209 116.497 23.5704 113.762 26.4578C111.036 29.3667 107.347 31 103.5 31C99.6535 31 95.9637 29.3667 93.2381 26.4578C90.5034 23.5704 88.9743 19.6209 89.0003 15.5076C88.9933 11.3932 90.5184 7.44586 93.2381 4.5411C95.9696 1.64296 99.6555 0.0118595 103.5 0ZM109.64 8.94319C108.016 7.18817 105.805 6.2024 103.5 6.2024C101.194 6.2024 98.9838 7.18817 97.3602 8.94319C95.7285 10.681 94.8106 13.0425 94.8086 15.5076C94.8086 18.8343 96.4654 21.9092 99.1549 23.5726C101.843 25.236 105.157 25.236 107.846 23.5726C110.535 21.9092 112.192 18.8343 112.192 15.5076C112.19 13.0426 111.271 10.681 109.64 8.94319H109.64ZM46.6886 4.5411C43.9672 1.63973 40.2904 0.00861885 36.4571 0C32.624 0.0118595 28.949 1.64296 26.2255 4.5411C23.5139 7.44586 21.9933 11.3932 22.0003 15.5076C21.9744 19.6209 23.499 23.5704 26.2255 26.4578C28.9431 29.3667 32.6219 31 36.4571 31C40.2922 31 43.971 29.3667 46.6886 26.4578C49.4473 23.5867 51.003 19.635 51 15.5076C50.9838 11.3791 49.4313 7.43069 46.6886 4.5411ZM36.4571 6.2024C38.7563 6.2024 40.9597 7.18817 42.5786 8.94319L42.5787 8.94349C44.7559 11.2942 45.5999 14.7138 44.795 17.9156C43.9892 21.1174 41.6556 23.6138 38.6734 24.4649C35.6903 25.3149 32.5127 24.3916 30.3355 22.0408C28.7166 20.3104 27.8014 17.9607 27.7914 15.5076C27.7763 13.0394 28.6945 10.6691 30.3355 8.94319C31.9542 7.18817 34.1585 6.2024 36.4571 6.2024Z" fill="currentColor" fill-opacity="0.6"/>
</svg>
