<svg width="108" height="108" viewBox="0 0 108 108" fill="none" xmlns="http://www.w3.org/2000/svg">
<path fill-rule="evenodd" clip-rule="evenodd" d="M6.77074 103.001C6.04183 102.986 5.33678 103.243 4.81503 103.714C4.29328 104.184 4 104.827 4 105.5C4 106.173 4.29328 106.816 4.81503 107.286C5.33678 107.757 6.04183 108.014 6.77074 107.999H45.2284C45.9582 108.014 46.6632 107.757 47.1841 107.286C47.7059 106.816 48 106.173 48 105.5C48 104.827 47.7059 104.184 47.1841 103.714C46.6632 103.243 45.9582 102.986 45.2284 103.001H6.77074Z" fill="currentColor" fill-opacity="0.6"/>
<path fill-rule="evenodd" clip-rule="evenodd" d="M64.223 0.880113L42.0838 22.7099C41.9434 22.6851 41.8004 22.6706 41.6583 22.668C30.228 22.7194 24.2191 28.4806 18.4123 33.9639C12.4462 39.9488 6.38784 46.0422 1.29748 51.1829C-0.462616 53.1091 -0.330793 54.3898 1.08431 55.7098L51.0236 101.358C56.768 106.668 61.0415 107.921 65.7961 108H104.707C106.922 107.988 108.002 106.635 107.985 104.996C107.982 100.948 108.009 96.824 107.997 92.8012C107.957 87.2118 104.998 84.7952 101.643 82.6584C98.2243 80.4814 94.1555 79.0536 90.2757 77.201C86.396 75.3476 82.7507 73.1458 80.0157 69.7548C77.3481 66.4477 75.7439 61.3627 75.1197 54.9901C75.0812 54.4696 74.9725 53.9679 74.9065 53.5519L96.0655 32.5678C97.0868 31.5636 97.0868 29.7223 96.0655 28.7181L68.0528 0.878818C66.7208 -0.324826 65.6371 -0.260613 64.2211 0.878818L64.223 0.880113ZM66.139 6.63381L90.2769 30.6225L68.5221 52.2411C49.9785 53.2881 41.3203 39.3975 43.3607 29.1005L66.139 6.63381ZM37.9554 28.337C35.3391 42.4536 47.9768 59.2685 69.8427 57.5701C69.9669 58.8396 70.1192 60.0544 70.3538 61.2085L64.4357 63.281C63.0874 63.7682 62.3057 65.4315 62.7963 66.7713C63.2868 68.1111 64.9604 68.8875 66.3087 68.4004L71.886 66.3698C72.4296 67.7464 73.0614 69.0424 73.7591 70.2195L68.948 71.912C67.5997 72.3888 66.8086 74.041 67.288 75.3808C67.7674 76.7205 69.43 77.5072 70.7792 77.0304L77.2075 74.7455C80.4451 78.1176 84.2984 80.3271 87.9359 82.0648C92.1291 84.0672 96.0936 85.5619 98.7071 87.2262C100.34 88.2663 101.4 89.16 101.985 90.3989H70.0122C65.4673 90.3989 62.9717 88.8699 58.9002 85.2375L45.7464 73.3072C49.0149 65.1274 48.1905 53.9538 40.0416 46.5702C35.3391 42.5073 30.6187 38.4453 25.9068 34.3857C29.3423 31.3337 32.6963 29.0643 37.9554 28.3359L37.9554 28.337ZM21.9475 38.11L36.3801 50.5906C41.9447 55.6363 42.9719 63.281 41.3608 69.2898L33.1869 61.8436C33.7057 60.7795 34.2716 59.2959 34.2511 57.4434C34.216 54.2683 32.4019 50.6393 27.737 46.5705H27.6942L20.0305 40.055C20.6726 39.4104 21.3052 38.752 21.9465 38.1091L21.9475 38.11ZM16.1996 43.9064L24.1184 50.6755C28.1428 54.1863 28.7885 56.2725 28.8012 57.4872C28.8029 57.6088 28.7704 57.7115 28.7584 57.8254L14.8796 45.2181C15.317 44.778 15.7622 44.3466 16.1997 43.9065L16.1996 43.9064ZM11.0486 49.0677L55.2394 89.2586C59.6637 93.206 64.034 95.8162 70.0119 95.8162H102.537V102.585H65.7975C61.2568 102.585 57.7665 100.091 54.7283 97.3811C38.6922 82.7944 22.6744 68.1086 6.6628 53.4668C8.12243 51.9918 9.5881 50.54 11.0477 49.0666L11.0486 49.0677Z" fill="currentColor" fill-opacity="0.6"/>
</svg>
